<?xml version="1.0" encoding="UTF-8" standalone="no"?>
<!-- Generator: Adobe Illustrator 13.0.0, SVG Export Plug-In . SVG Version: 6.00 Build 14948)  -->

<svg
   xmlns:dc="http://purl.org/dc/elements/1.1/"
   xmlns:cc="http://creativecommons.org/ns#"
   xmlns:rdf="http://www.w3.org/1999/02/22-rdf-syntax-ns#"
   xmlns:svg="http://www.w3.org/2000/svg"
   xmlns="http://www.w3.org/2000/svg"
   xmlns:sodipodi="http://sodipodi.sourceforge.net/DTD/sodipodi-0.dtd"
   xmlns:inkscape="http://www.inkscape.org/namespaces/inkscape"
   version="1.1"
   id="Layer_1"
   x="0px"
   y="0px"
   width="128px"
   height="100px"
   viewBox="0 0 128 100"
   enable-background="new 0 0 128 100"
   xml:space="preserve"
   inkscape:version="0.47 r22583"
   sodipodi:docname="Blue_Glass_Arrow.svg"><metadata
   id="metadata68"><rdf:RDF><cc:Work
       rdf:about=""><dc:format>image/svg+xml</dc:format><dc:type
         rdf:resource="http://purl.org/dc/dcmitype/StillImage" /></cc:Work></rdf:RDF></metadata><sodipodi:namedview
   pagecolor="#ffffff"
   bordercolor="#666666"
   borderopacity="1"
   objecttolerance="10"
   gridtolerance="10"
   guidetolerance="10"
   inkscape:pageopacity="0"
   inkscape:pageshadow="2"
   inkscape:window-width="1280"
   inkscape:window-height="748"
   id="namedview66"
   showgrid="false"
   inkscape:zoom="2.36"
   inkscape:cx="64"
   inkscape:cy="49.152542"
   inkscape:window-x="0"
   inkscape:window-y="0"
   inkscape:window-maximized="1"
   inkscape:current-layer="Layer_1" />
<defs
   id="defs3"><inkscape:perspective
   sodipodi:type="inkscape:persp3d"
   inkscape:vp_x="0 : 50 : 1"
   inkscape:vp_y="0 : 1000 : 0"
   inkscape:vp_z="128 : 50 : 1"
   inkscape:persp3d-origin="64 : 33.333333 : 1"
   id="perspective70" />
<filter
   id="Gaussian_Blur">
<feGaussianBlur
   in="SourceGraphic"
   stdDeviation="2"
   id="feGaussianBlur6" />
</filter>
</defs>
<path
   enable-background="new    "
   d="m 7.333,54.584 c 0,0 67.667,-15.334 114.544,3.387 0.996,1.155 0.379,2.506 -1.603,3.453 -1.978,0.945 -68.924,25.151 -68.924,25.151 0,0 -3.244,1.307 -4.803,1.264 -2.569,-0.069 -4.087,-0.8 -4.129,-6.866 -0.027,-3.962 1.748,-10.556 1.748,-10.556 l -35.2,-0.062 c 0,0 -2.428,0.155 -4.381,-1.938 C 2.71,66.406 7.333,54.584 7.333,54.584 z"
   style="opacity:0.5;fill:#000000;stroke:#000000;stroke-width:0;filter:url(#Gaussian_Blur)"
   id="path8"
   transform="matrix(-1,0,0,1,126.48329,0)" />
<linearGradient
   id="SVGID_1_"
   gradientUnits="userSpaceOnUse"
   x1="215.7656"
   y1="-278.127"
   x2="222.8434"
   y2="-212.7417"
   gradientTransform="matrix(-1,0,0,-1,282.48329,-197)">
	<stop
   offset="0"
   style="stop-color:#20ABFF"
   id="stop11" />
	<stop
   offset="0.5838"
   style="stop-color:#1572DE"
   id="stop13" />
	<stop
   offset="0.8528"
   style="stop-color:#0938BC"
   id="stop15" />
</linearGradient>
<path
   d="m 123.21429,61.407 c 0,0 0.076,-6.572 0.084,-8.765 0.012,-3.147 -1.095,-8.762 -3.37,-13.902 -2.274,-5.14 -2.875,-6.55 -4.897,-6.55 -2.022,0 -42.035997,0.315 -42.035997,0.315 l -3.371,-15.504 c 0,0 -0.505,-3.202 -2.444,-3.792 -1.938,-0.59 -5.392,1.179 -5.392,1.179 0,0 -40.067,19.612 -53.2109998,26.121 -1.074,0.531 -4.15,2.085 -4.17,3.202 -0.035,1.855 -0.171,11.375 -0.171,11.375 0,0 -0.379,2.507 1.603,3.454 1.977,0.946 68.9239998,25.151 68.9239998,25.151 0,0 3.245,1.309 4.804,1.266 2.57,-0.07 4.087,-0.8 4.129,-6.866 0.028,-3.962 -1.095,-10.194 -1.095,-10.194 l 34.547997,-0.422 c 0,0 2.428,0.155 4.381,-1.938 1.874,-2.014 1.684,-4.13 1.684,-4.13 z"
   id="path17"
   style="fill:url(#SVGID_1_)" />
<linearGradient
   id="SVGID_2_"
   gradientUnits="userSpaceOnUse"
   x1="186.625"
   y1="-258.7021"
   x2="186.625"
   y2="-248.506"
   gradientTransform="matrix(-1,0,0,-1,282.48329,-197)">
	<stop
   offset="0"
   style="stop-color:#20D4FF"
   id="stop20" />
	<stop
   offset="1"
   style="stop-color:#20ADFF"
   id="stop22" />
</linearGradient>
<path
   d="m 77.020293,65.747 40.529997,0.085 2.023,-1.266 c 0,0 0.59,-3.116 0.505,-6.571 -0.085,-3.455 -0.084,-3.455 -0.084,-3.455 0,0 0.084,-3.201 -3.539,-3.286 -3.623,-0.085 -44.825997,-0.253 -44.825997,-0.253 l 5.391,14.746 z"
   id="path24"
   style="fill:url(#SVGID_2_)" />
<path
   d="m 123.24729,58.395 c 0,0 0.758,5.311 -1.833,7.395 -1.324,1.064 -2.948,1.703 -4.192,1.729 -8.595,0.168 -34.620997,0.379 -34.620997,0.379 0,0 1.337,7.162 1.169,9.773 -0.147,2.271 -2.422,3.803 -2.422,3.803 0,0 -1.078,-5.709 -1.928,-8.216 -0.8,-2.358 -2.863,-7.687 -1.906,-8.815 0.821,-0.97 39.328997,0.271 39.328997,0.271 0,0 2.928,0.2 4.382,-1.38 1.351,-1.469 2.022,-4.939 2.022,-4.939 z"
   id="path26"
   style="fill:#20bfff" />
<linearGradient
   id="SVGID_3_"
   gradientUnits="userSpaceOnUse"
   x1="237.3691"
   y1="-274.5654"
   x2="237.3691"
   y2="-223.0167"
   gradientTransform="matrix(-1,0,0,-1,282.48329,-197)">
	<stop
   offset="0"
   style="stop-color:#3AEFFF"
   id="stop29" />
	<stop
   offset="0.5482"
   style="stop-color:#20ABFF"
   id="stop31" />
	<stop
   offset="0.619"
   style="stop-color:#1EA1F9"
   id="stop33" />
	<stop
   offset="0.7399"
   style="stop-color:#1986E9"
   id="stop35" />
	<stop
   offset="0.8955"
   style="stop-color:#105AD0"
   id="stop37" />
	<stop
   offset="1"
   style="stop-color:#0938BC"
   id="stop39" />
</linearGradient>
<path
   d="m 80.990293,78.723 -13.482,-52.073 -4.719,-0.843 -53.2509998,29.154 c 0,0 -2.022,1.518 0.5059998,2.528 2.526,1.011 68.083,24.771 68.083,24.771 0,0 2.066,0.751 3.034,0 0.756,-0.588 -0.171,-3.537 -0.171,-3.537 z"
   id="path41"
   style="fill:url(#SVGID_3_)" />
<linearGradient
   id="SVGID_4_"
   gradientUnits="userSpaceOnUse"
   x1="199.0293"
   y1="-265.7773"
   x2="278.4434"
   y2="-265.7773"
   gradientTransform="matrix(-1,0,0,-1,282.48329,-197)">
	<stop
   offset="0"
   style="stop-color:#20ABFF"
   id="stop44" />
	<stop
   offset="1"
   style="stop-color:#2057D9"
   id="stop46" />
</linearGradient>
<path
   d="m 77.303293,82.389 c 0,0 -66.071,-24.488 -67.6829998,-25.09 -1.621,-0.604 -5.135,-1.801 -5.197,-3.775 -0.111,-3.474 -1.265,4.093 1.068,4.979 1.91,0.725 69.6419998,25.362 69.6419998,25.362 0,0 2.232,1.096 4.739,1.073 3.581,-0.029 3.581,-3.58 3.581,-3.58 0,0 -2.612,1.662 -3.623,1.662 -1.011,0 -2.527,-0.631 -2.527,-0.631 z"
   id="path48"
   style="fill:url(#SVGID_4_)" />
<path
   enable-background="new    "
   d="m 120.90829,47.314 c 0,0 -2.549,-7.436 -3.666,-10.238 -1.221,-3.063 -2.212,-2.928 -2.212,-2.928 l -44.236997,0.084 c 0,0 -1.424,-7.97 -2.359,-11.965 -0.927,-3.96 -1.606,-6.962 -2.443,-7.12 -1.428,-0.27 -41.267,18.927 -41.541,20.013 -0.346,1.374 5.168,9.218 15.883,14.998 9.606,5.182 9.732,5.141 16.559,7.668 6.825,2.527 11.88,3.623 15.588,3.707 3.707,0.084 4.855,0.475 5.361,-0.254 0.671,-0.965 -2.075,-4.213 -2.075,-5.981 0,-1.69 0.485,-3.55 3.497,-5.708 3.496,-2.507 13.253,-2.492 17.757,-2.401 5.717997,0.113 23.887997,0.125 23.887997,0.125 z"
   id="path50"
   style="opacity:0.6;fill:#ffffff" />
<linearGradient
   id="SVGID_5_"
   gradientUnits="userSpaceOnUse"
   x1="183.9668"
   y1="-253.4766"
   x2="183.9668"
   y2="-250.6126"
   gradientTransform="matrix(-1,0,0,-1,282.48329,-197)">
	<stop
   offset="0"
   style="stop-color:#A3E0FF"
   id="stop53" />
	<stop
   offset="1"
   style="stop-color:#FFFFFF"
   id="stop55" />
</linearGradient>
<path
   enable-background="new    "
   d="m 76.355293,54.961 c 0,1.023 0.83,1.854 1.854,1.854 l 40.613997,0 c 1.023,0 1.854,-0.828 1.854,-1.854 l 0,0 c 0,-1.023 -0.83,-1.854 -1.854,-1.854 l -40.613997,0 c -1.024,0 -1.854,0.831 -1.854,1.854 l 0,0 z"
   id="path57"
   style="opacity:0.7;fill:url(#SVGID_5_)" />
<linearGradient
   id="SVGID_6_"
   gradientUnits="userSpaceOnUse"
   x1="116.0586"
   y1="-316.2344"
   x2="116.0586"
   y2="-313.3705"
   gradientTransform="matrix(-0.9448,-0.3275,0.3275,-0.9448,256.57359,-201.9744)">
	<stop
   offset="0"
   style="stop-color:#A3E0FF"
   id="stop60" />
	<stop
   offset="1"
   style="stop-color:#FFFFFF"
   id="stop62" />
</linearGradient>
<path
   enable-background="new    "
   d="m 6.8512932,44.537 c -0.335,0.968 0.776,2.23 2.487,2.824 L 77.149293,70.866 c 1.709,0.593 3.367,0.29 3.703,-0.679 l 0,0 c 0.334,-0.967 -0.78,-2.23 -2.488,-2.823 l -67.813,-23.506 C 8.8422932,43.265 7.1872932,43.569 6.8512932,44.537 l 0,0 z"
   id="path64"
   style="opacity:0.7;fill:url(#SVGID_6_)" />
</svg>